<?xml version="1.0" standalone="no"?><!DOCTYPE svg PUBLIC "-//W3C//DTD SVG 1.1//EN" "http://www.w3.org/Graphics/SVG/1.1/DTD/svg11.dtd"><svg t="1629955745035" class="icon" viewBox="0 0 1024 1024" version="1.1" xmlns="http://www.w3.org/2000/svg" p-id="1819" xmlns:xlink="http://www.w3.org/1999/xlink" width="200" height="200"><defs><style type="text/css"></style></defs><path d="M832 32a96 96 0 0 1 96 96v768a96 96 0 0 1-96 96H192a96 96 0 0 1-96-96V128a96 96 0 0 1 96-96z m0 64H192a32 32 0 0 0-32 32v768a32 32 0 0 0 32 32h640a32 32 0 0 0 32-32V128a32 32 0 0 0-32-32zM320 640a64 64 0 1 1 0 128 64 64 0 0 1 0-128z m416 32a32 32 0 0 1 0 64h-256a32 32 0 0 1 0-64h256z m-416-224a64 64 0 1 1 0 128 64 64 0 0 1 0-128z m416 32a32 32 0 0 1 0 64h-256a32 32 0 0 1 0-64h256zM320 256a64 64 0 1 1 0 128 64 64 0 0 1 0-128z m416 32a32 32 0 0 1 0 64h-256a32 32 0 0 1 0-64h256z" p-id="1820" fill="#ffffff"></path></svg>