<?xml version="1.0" standalone="no"?><!DOCTYPE svg PUBLIC "-//W3C//DTD SVG 1.1//EN" "http://www.w3.org/Graphics/SVG/1.1/DTD/svg11.dtd"><svg t="1630139838704" class="icon" viewBox="0 0 1097 1024" version="1.1" xmlns="http://www.w3.org/2000/svg" p-id="840" xmlns:xlink="http://www.w3.org/1999/xlink" width="214.2578125" height="200"><defs><style type="text/css"></style></defs><path d="M526.628571 877.860571c59.245714 0 114.541714 22.674286 156.745143 64.219429a446.244571 446.244571 0 0 0 129.170286-74.825143 222.573714 222.573714 0 0 1 22.747429-168.082286 221.622857 221.622857 0 0 1 134.070857-103.936c4.315429-25.380571 6.436571-50.468571 6.436571-74.898285 0-24.356571-2.194286-49.444571-6.436571-74.825143a221.769143 221.769143 0 0 1-134.070857-103.936 222.500571 222.500571 0 0 1-22.674286-168.155429 444.854857 444.854857 0 0 0-129.316572-74.752A221.549714 221.549714 0 0 1 526.628571 162.816c-59.245714 0-114.468571-22.747429-156.672-64.219429A445.074286 445.074286 0 0 0 240.64 173.494857a222.354286 222.354286 0 0 1-22.747429 168.082286 221.622857 221.622857 0 0 1-133.997714 103.862857c-4.388571 25.380571-6.509714 50.468571-6.509714 74.898286 0 24.429714 2.194286 49.517714 6.509714 74.898285a221.622857 221.622857 0 0 1 133.997714 103.862858 222.354286 222.354286 0 0 1 22.747429 168.155428 446.464 446.464 0 0 0 129.243429 74.825143 221.403429 221.403429 0 0 1 156.672-64.219429m-152.502858 144.091429a61.805714 61.805714 0 0 1-20.260571-3.437714h-0.219429a524.141714 524.141714 0 0 1-171.154285-99.108572 62.171429 62.171429 0 0 1-18.651429-64.877714A146.285714 146.285714 0 0 0 150.820571 737.718857a145.334857 145.334857 0 0 0-94.354285-69.632 61.952 61.952 0 0 1-46.957715-48.859428A532.114286 532.114286 0 0 1 0 520.338286c0-32.256 3.218286-65.536 9.508571-98.816a61.952 61.952 0 0 1 46.957715-48.859429 145.334857 145.334857 0 0 0 94.354285-69.632A146.285714 146.285714 0 0 0 163.84 186.221714a62.025143 62.025143 0 0 1 18.724571-64.877714A522.459429 522.459429 0 0 1 353.718857 22.235429a61.952 61.952 0 0 1 65.828572 16.310857c28.086857 30.281143 66.194286 46.957714 107.081142 46.957714 40.96 0 78.994286-16.676571 107.154286-46.957714a61.952 61.952 0 0 1 65.828572-16.237715c63.122286 21.942857 120.685714 55.296 171.154285 98.962286 18.505143 16.091429 25.819429 41.545143 18.651429 64.950857a146.432 146.432 0 0 0 13.092571 116.809143c20.48 35.547429 53.979429 60.342857 94.354286 69.632 23.917714 5.485714 42.349714 24.649143 46.884571 48.859429 6.363429 33.353143 9.508571 66.56 9.508572 98.816 0 32.182857-3.145143 65.536-9.508572 98.889143a61.952 61.952 0 0 1-46.957714 48.859428 145.334857 145.334857 0 0 0-94.354286 69.632 146.505143 146.505143 0 0 0-13.019428 116.809143 62.025143 62.025143 0 0 1-18.651429 64.877714 524.141714 524.141714 0 0 1-171.154285 99.108572h-0.146286a62.171429 62.171429 0 0 1-65.682286-16.384 144.969143 144.969143 0 0 0-107.154286-46.884572c-40.96 0-78.994286 16.603429-107.154285 46.957715a62.171429 62.171429 0 0 1-45.348572 19.748571" fill="#ffffff" p-id="841"></path><path d="M526.409143 393.947429a126.537143 126.537143 0 0 0-126.464 126.464 126.537143 126.537143 0 0 0 126.464 126.390857 126.537143 126.537143 0 0 0 126.390857-126.390857 126.537143 126.537143 0 0 0-126.390857-126.464m0 327.094857a200.850286 200.850286 0 0 1-200.630857-200.630857 200.850286 200.850286 0 0 1 200.630857-200.630858A200.850286 200.850286 0 0 1 727.04 520.411429a200.850286 200.850286 0 0 1-200.630857 200.630857" fill="#ffffff" p-id="842"></path></svg>