<?xml version="1.0" standalone="no"?><!DOCTYPE svg PUBLIC "-//W3C//DTD SVG 1.1//EN" "http://www.w3.org/Graphics/SVG/1.1/DTD/svg11.dtd"><svg t="1630601929202" class="icon" viewBox="0 0 1024 1024" version="1.1" xmlns="http://www.w3.org/2000/svg" p-id="2718" xmlns:xlink="http://www.w3.org/1999/xlink" width="200" height="200"><defs><style type="text/css"></style></defs><path d="M580.266667 0a34.133333 34.133333 0 0 0-34.133334 34.133333v409.6a34.133333 34.133333 0 0 0 34.133334 34.133334h409.6a34.133333 34.133333 0 0 0 34.133333-34.133334A443.665067 443.665067 0 0 0 580.266667 0z m34.133333 409.6V69.8368A375.466667 375.466667 0 0 1 954.1632 409.6H614.4zM235.144533 268.0832A375.466667 375.466667 0 0 1 409.6 206.370133V580.266667a34.133333 34.133333 0 0 0 34.133333 34.133333h373.896534A375.466667 375.466667 0 1 1 235.178667 268.0832zM443.733333 136.533333a443.733333 443.733333 0 1 0 443.733334 443.733334 34.133333 34.133333 0 0 0-34.133334-34.133334H477.866667V170.666667a34.133333 34.133333 0 0 0-34.133334-34.133334z" p-id="2719" fill="#ffffff"></path></svg>